<svg xmlns="http://www.w3.org/2000/svg" width="16" height="16" viewBox="0 0 16 16"><title>website_icon</title><path d="M6.59,16a6,6,0,0,1-4-1.31A4.22,4.22,0,0,1,1,11.29,4,4,0,0,1,2.68,7.86,7.63,7.63,0,0,1,7.29,6.63,12.16,12.16,0,0,1,11,7.22V6.15a2.45,2.45,0,0,0-.82-2,3.72,3.72,0,0,0-2.4-.67,8,8,0,0,0-2.1.31,17.92,17.92,0,0,0-2.57,1l-1.47-3A19.37,19.37,0,0,1,5.13.55,14,14,0,0,1,8.47.14a7.17,7.17,0,0,1,4.8,1.47A5.24,5.24,0,0,1,15,5.8v9.93H11V14.67a7.17,7.17,0,0,1-2,1A8.3,8.3,0,0,1,6.59,16ZM4.85,11.2a1.6,1.6,0,0,0,.76,1.4,3.57,3.57,0,0,0,2,.49,6.41,6.41,0,0,0,1.84-.25A5.69,5.69,0,0,0,11,12.12V9.85a7.35,7.35,0,0,0-1.54-.43,10.47,10.47,0,0,0-1.69-.13,3.92,3.92,0,0,0-2.16.49,1.59,1.59,0,0,0-.78,1.42Z"/></svg>